<svg xmlns="http://www.w3.org/2000/svg" viewBox="0 0 30 30" width="256" height="256"><path d="M16 1h-2C6.832 1 1 6.832 1 14a1 1 0 0 0 1 1h26a1 1 0 0 0 1-1c0-7.168-5.832-13-13-13zM3.045 13C3.552 7.401 8.271 3 14 3h2c5.729 0 10.448 4.401 10.955 10H3.045zM28 21h-4a.997.997 0 0 0-.6.2L20 23.75l-3.4-2.55a.997.997 0 0 0-.6-.2H2a1 1 0 0 0-1 1v2c0 2.757 2.243 5 5 5h18c2.757 0 5-2.243 5-5v-2a1 1 0 0 0-1-1zm-1 3c0 1.654-1.346 3-3 3H6c-1.654 0-3-1.346-3-3v-1h12.667l3.733 2.8a.995.995 0 0 0 1.199 0l3.733-2.8H27v1zM28 17H2a1 1 0 1 0 0 2h26a1 1 0 1 0 0-2z" fill="#595bd4" class="color000 svgShape"></path><path d="M10 7a1 1 0 0 0-1 1v1a1 1 0 1 0 2 0V8a1 1 0 0 0-1-1zM15 7a1 1 0 0 0-1 1v1a1 1 0 1 0 2 0V8a1 1 0 0 0-1-1zM20 7a1 1 0 0 0-1 1v1a1 1 0 1 0 2 0V8a1 1 0 0 0-1-1z" fill="#595bd4" class="color000 svgShape"></path></svg>